<mxfile host="app.diagrams.net" agent="Mozilla/5.0 (Windows NT 10.0; Win64; x64) AppleWebKit/537.36 (KHTML, like Gecko) Chrome/132.0.0.0 Safari/537.36 OPR/117.0.0.0" version="26.2.9">
  <diagram name="Página-1" id="YSks3yoz5zNQXACp7_Tj">
    <mxGraphModel dx="833" dy="1622" grid="1" gridSize="10" guides="1" tooltips="1" connect="1" arrows="1" fold="1" page="1" pageScale="1" pageWidth="827" pageHeight="1169" math="0" shadow="0">
      <root>
        <mxCell id="0" />
        <mxCell id="1" parent="0" />
        <mxCell id="l1CNIdZgSdTT2vByznts-23" value="" style="edgeStyle=orthogonalEdgeStyle;rounded=0;orthogonalLoop=1;jettySize=auto;html=1;" edge="1" parent="1" source="l1CNIdZgSdTT2vByznts-2" target="l1CNIdZgSdTT2vByznts-22">
          <mxGeometry relative="1" as="geometry" />
        </mxCell>
        <mxCell id="l1CNIdZgSdTT2vByznts-2" value="Início" style="rounded=1;whiteSpace=wrap;html=1;fontSize=12;glass=0;strokeWidth=1;shadow=0;" vertex="1" parent="1">
          <mxGeometry x="425" y="-1060" width="60" height="40" as="geometry" />
        </mxCell>
        <mxCell id="l1CNIdZgSdTT2vByznts-5" value="" style="edgeStyle=orthogonalEdgeStyle;rounded=0;orthogonalLoop=1;jettySize=auto;html=1;" edge="1" parent="1" source="l1CNIdZgSdTT2vByznts-9">
          <mxGeometry relative="1" as="geometry">
            <mxPoint x="450" y="-610" as="targetPoint" />
          </mxGeometry>
        </mxCell>
        <mxCell id="l1CNIdZgSdTT2vByznts-6" value="Não" style="edgeLabel;html=1;align=center;verticalAlign=middle;resizable=0;points=[];" vertex="1" connectable="0" parent="l1CNIdZgSdTT2vByznts-5">
          <mxGeometry x="-0.64" y="-1" relative="1" as="geometry">
            <mxPoint as="offset" />
          </mxGeometry>
        </mxCell>
        <mxCell id="l1CNIdZgSdTT2vByznts-7" style="edgeStyle=orthogonalEdgeStyle;rounded=0;orthogonalLoop=1;jettySize=auto;html=1;entryX=0;entryY=0.5;entryDx=0;entryDy=0;" edge="1" parent="1" source="l1CNIdZgSdTT2vByznts-9">
          <mxGeometry relative="1" as="geometry">
            <mxPoint x="655" y="-700" as="targetPoint" />
          </mxGeometry>
        </mxCell>
        <mxCell id="l1CNIdZgSdTT2vByznts-8" value="Sim" style="edgeLabel;html=1;align=center;verticalAlign=middle;resizable=0;points=[];" vertex="1" connectable="0" parent="l1CNIdZgSdTT2vByznts-7">
          <mxGeometry x="-0.0312" relative="1" as="geometry">
            <mxPoint as="offset" />
          </mxGeometry>
        </mxCell>
        <mxCell id="l1CNIdZgSdTT2vByznts-9" value="inferior &amp;gt; superior?" style="shape=hexagon;perimeter=hexagonPerimeter2;whiteSpace=wrap;html=1;fixedSize=1;" vertex="1" parent="1">
          <mxGeometry x="395" y="-740" width="120" height="80" as="geometry" />
        </mxCell>
        <mxCell id="l1CNIdZgSdTT2vByznts-37" style="edgeStyle=orthogonalEdgeStyle;rounded=0;orthogonalLoop=1;jettySize=auto;html=1;entryX=0;entryY=0.5;entryDx=0;entryDy=0;" edge="1" parent="1" source="l1CNIdZgSdTT2vByznts-11" target="l1CNIdZgSdTT2vByznts-9">
          <mxGeometry relative="1" as="geometry">
            <Array as="points">
              <mxPoint x="180" y="-290" />
              <mxPoint x="180" y="-700" />
            </Array>
          </mxGeometry>
        </mxCell>
        <mxCell id="l1CNIdZgSdTT2vByznts-11" value="i = i + 1" style="whiteSpace=wrap;html=1;" vertex="1" parent="1">
          <mxGeometry x="390" y="-320" width="120" height="60" as="geometry" />
        </mxCell>
        <mxCell id="l1CNIdZgSdTT2vByznts-12" value="Fim" style="rounded=1;whiteSpace=wrap;html=1;fontSize=12;glass=0;strokeWidth=1;shadow=0;" vertex="1" parent="1">
          <mxGeometry x="655" y="-720" width="60" height="40" as="geometry" />
        </mxCell>
        <mxCell id="l1CNIdZgSdTT2vByznts-25" value="" style="edgeStyle=orthogonalEdgeStyle;rounded=0;orthogonalLoop=1;jettySize=auto;html=1;" edge="1" parent="1" source="l1CNIdZgSdTT2vByznts-22" target="l1CNIdZgSdTT2vByznts-24">
          <mxGeometry relative="1" as="geometry" />
        </mxCell>
        <mxCell id="l1CNIdZgSdTT2vByznts-22" value="&lt;div&gt;&lt;br&gt;&lt;/div&gt;&lt;div&gt;Ler inferior(nº inteiro)&lt;/div&gt;" style="shape=manualInput;whiteSpace=wrap;html=1;" vertex="1" parent="1">
          <mxGeometry x="392.5" y="-990" width="125" height="70" as="geometry" />
        </mxCell>
        <mxCell id="l1CNIdZgSdTT2vByznts-26" value="" style="edgeStyle=orthogonalEdgeStyle;rounded=0;orthogonalLoop=1;jettySize=auto;html=1;" edge="1" parent="1" source="l1CNIdZgSdTT2vByznts-24" target="l1CNIdZgSdTT2vByznts-9">
          <mxGeometry relative="1" as="geometry" />
        </mxCell>
        <mxCell id="l1CNIdZgSdTT2vByznts-24" value="&lt;div&gt;&lt;br&gt;&lt;/div&gt;&lt;div&gt;Ler superior&lt;/div&gt;" style="shape=manualInput;whiteSpace=wrap;html=1;" vertex="1" parent="1">
          <mxGeometry x="392.5" y="-890" width="125" height="70" as="geometry" />
        </mxCell>
        <mxCell id="l1CNIdZgSdTT2vByznts-35" style="edgeStyle=orthogonalEdgeStyle;rounded=0;orthogonalLoop=1;jettySize=auto;html=1;entryX=0;entryY=0.5;entryDx=0;entryDy=0;" edge="1" parent="1" source="l1CNIdZgSdTT2vByznts-28" target="l1CNIdZgSdTT2vByznts-32">
          <mxGeometry relative="1" as="geometry">
            <Array as="points">
              <mxPoint x="280" y="-420" />
            </Array>
          </mxGeometry>
        </mxCell>
        <mxCell id="l1CNIdZgSdTT2vByznts-28" value="inferior" style="shape=display;whiteSpace=wrap;html=1;" vertex="1" parent="1">
          <mxGeometry x="240" y="-590" width="80" height="40" as="geometry" />
        </mxCell>
        <mxCell id="l1CNIdZgSdTT2vByznts-30" value="" style="edgeStyle=orthogonalEdgeStyle;rounded=0;orthogonalLoop=1;jettySize=auto;html=1;" edge="1" parent="1" source="l1CNIdZgSdTT2vByznts-29" target="l1CNIdZgSdTT2vByznts-28">
          <mxGeometry relative="1" as="geometry" />
        </mxCell>
        <mxCell id="l1CNIdZgSdTT2vByznts-31" value="Verdadeiro" style="edgeLabel;html=1;align=center;verticalAlign=middle;resizable=0;points=[];" vertex="1" connectable="0" parent="l1CNIdZgSdTT2vByznts-30">
          <mxGeometry x="-0.2" y="-1" relative="1" as="geometry">
            <mxPoint as="offset" />
          </mxGeometry>
        </mxCell>
        <mxCell id="l1CNIdZgSdTT2vByznts-34" value="" style="edgeStyle=orthogonalEdgeStyle;rounded=0;orthogonalLoop=1;jettySize=auto;html=1;" edge="1" parent="1" source="l1CNIdZgSdTT2vByznts-29" target="l1CNIdZgSdTT2vByznts-32">
          <mxGeometry relative="1" as="geometry" />
        </mxCell>
        <mxCell id="l1CNIdZgSdTT2vByznts-29" value="inferior &amp;gt; 0" style="rhombus;whiteSpace=wrap;html=1;" vertex="1" parent="1">
          <mxGeometry x="410" y="-610" width="80" height="80" as="geometry" />
        </mxCell>
        <mxCell id="l1CNIdZgSdTT2vByznts-36" value="" style="edgeStyle=orthogonalEdgeStyle;rounded=0;orthogonalLoop=1;jettySize=auto;html=1;" edge="1" parent="1" source="l1CNIdZgSdTT2vByznts-32" target="l1CNIdZgSdTT2vByznts-11">
          <mxGeometry relative="1" as="geometry" />
        </mxCell>
        <mxCell id="l1CNIdZgSdTT2vByznts-32" value="" style="ellipse;whiteSpace=wrap;html=1;aspect=fixed;" vertex="1" parent="1">
          <mxGeometry x="430" y="-440" width="40" height="40" as="geometry" />
        </mxCell>
      </root>
    </mxGraphModel>
  </diagram>
</mxfile>
